<?xml version="1.0" standalone="no"?>
<!DOCTYPE svg PUBLIC "-//W3C//DTD SVG 20010904//EN"
 "http://www.w3.org/TR/2001/REC-SVG-20010904/DTD/svg10.dtd">
<svg version="1.0" xmlns="http://www.w3.org/2000/svg"
 width="42.000000pt" height="41.000000pt" viewBox="0 0 42.000000 41.000000"
 preserveAspectRatio="xMidYMid meet">

<g transform="translate(0.000000,41.000000) scale(0.100000,-0.100000)"
fill="#000000" stroke="none">
<path d="M0 205 l0 -205 210 0 210 0 0 205 0 205 -210 0 -210 0 0 -205z m273
103 c33 -17 17 -28 -43 -28 l-60 0 22 -25 c13 -15 32 -25 47 -25 l26 1 -27 15
c-16 8 -28 17 -28 19 0 10 16 4 40 -14 23 -19 24 -20 7 -39 -16 -18 -16 -20 3
-45 42 -53 17 -77 -79 -77 -34 0 -61 4 -61 10 0 6 5 10 12 10 22 0 58 43 58
69 l0 26 -20 -25 c-17 -22 -20 -22 -20 -6 0 15 -3 16 -15 6 -13 -10 -15 -9
-15 8 0 12 -5 24 -10 27 -11 7 5 45 23 57 7 4 6 12 -2 22 -12 14 -10 16 10 16
13 0 31 5 39 10 16 10 62 4 93 -12z m32 -48 c3 -5 -1 -10 -9 -10 -8 0 -18 5
-21 10 -3 6 1 10 9 10 8 0 18 -4 21 -10z m-198 -92 c-3 -8 -6 -5 -6 6 -1 11 2
17 5 13 3 -3 4 -12 1 -19z"/>
</g>
</svg>
